<?xml version="1.0"?>
<svg width="328" height="54" xmlns="http://www.w3.org/2000/svg" xmlns:svg="http://www.w3.org/2000/svg" enable-background="new 0 0 328 54" version="1.1" xml:space="preserve">
 <style type="text/css">.st0{enable-background:new    ;}
	.st1{fill:#FFFFFF;}</style>
 <g class="layer">
  <title>Layer 1</title>
  <g class="st0" id="svg_1">
   <path class="st1" d="m21,45l0,-31.1l9,0c1.8,0 3.3,0.2 4.6,0.5c1.3,0.4 2.4,0.9 3.2,1.6c0.9,0.7 1.5,1.5 1.9,2.5s0.6,2.1 0.6,3.3c0,0.8 -0.1,1.6 -0.4,2.4c-0.3,0.8 -0.7,1.5 -1.2,2.1c-0.5,0.6 -1.2,1.2 -2,1.7s-1.7,0.8 -2.7,1c2.4,0.4 4.3,1.2 5.7,2.4s2,2.9 2,5c0,1.3 -0.2,2.5 -0.7,3.6c-0.5,1.1 -1.2,2 -2,2.7s-2,1.3 -3.3,1.7c-1.3,0.4 -2.8,0.6 -4.4,0.6l-10.3,0zm2.2,-16.6l6.8,0c1.4,0 2.7,-0.2 3.7,-0.5c1,-0.4 1.9,-0.9 2.5,-1.5c0.7,-0.6 1.1,-1.3 1.4,-2c0.3,-0.8 0.5,-1.5 0.5,-2.4c0,-2.1 -0.7,-3.7 -2,-4.8c-1.3,-1.1 -3.4,-1.6 -6.1,-1.6l-6.7,0l0,12.8l-0.1,0zm0,1.7l0,13.1l7.8,0c2.7,0 4.8,-0.6 6.2,-1.8c1.4,-1.2 2.1,-2.8 2.1,-5c0,-1 -0.2,-1.9 -0.6,-2.7c-0.4,-0.8 -0.9,-1.5 -1.6,-2s-1.6,-1 -2.6,-1.3c-1,-0.3 -2.2,-0.4 -3.5,-0.4l-7.8,0l0,0.1z" id="svg_2"/>
   <path class="st1" d="m52.3,45l-2.3,0l0,-31.1l2.3,0l0,31.1z" id="svg_3"/>
   <path class="st1" d="m81,13.9l0,1.9l-16.4,0l0,12.6l13.6,0l0,1.8l-13.6,0l0,13l16.4,0l0,1.8l-18.6,0l0,-31.1l18.6,0z" id="svg_4"/>
   <path class="st1" d="m89.9,13.9c0.1,0.1 0.2,0.2 0.4,0.3l20.2,27c0,-0.4 -0.1,-0.9 -0.1,-1.3l0,-26l2,0l0,31.1l-1.1,0c-0.3,0 -0.6,-0.1 -0.8,-0.4l-20.2,-27c0,0.4 0.1,0.9 0.1,1.3l0,26.1l-2,0l0,-31.1l1.1,0c0.2,0 0.3,0 0.4,0z" id="svg_5"/>
   <path class="st1" d="m140.3,13.9l0,1.9l-16.4,0l0,12.6l13.6,0l0,1.8l-13.6,0l0,13l16.4,0l0,1.8l-18.7,0l0,-31.1l18.7,0z" id="svg_6"/>
   <path class="st1" d="m162.7,17.7c-0.1,0.2 -0.3,0.4 -0.6,0.4c-0.2,0 -0.4,-0.1 -0.7,-0.4s-0.7,-0.6 -1.2,-0.9c-0.5,-0.3 -1.2,-0.6 -1.9,-0.9c-0.8,-0.3 -1.7,-0.4 -2.9,-0.4c-1.1,0 -2.1,0.2 -3,0.5c-0.9,0.3 -1.6,0.8 -2.2,1.3c-0.6,0.6 -1,1.2 -1.3,1.9s-0.5,1.5 -0.5,2.3c0,1.1 0.2,1.9 0.7,2.6c0.4,0.7 1,1.3 1.8,1.8c0.7,0.5 1.6,0.9 2.5,1.2s1.9,0.7 2.9,1c1,0.3 1.9,0.7 2.9,1.1c0.9,0.4 1.8,0.9 2.5,1.5c0.7,0.6 1.3,1.3 1.8,2.2c0.4,0.9 0.7,1.9 0.7,3.2c0,1.3 -0.2,2.5 -0.7,3.7c-0.4,1.2 -1.1,2.2 -1.9,3c-0.8,0.9 -1.9,1.5 -3.1,2c-1.2,0.5 -2.6,0.7 -4.2,0.7c-2.1,0 -3.8,-0.4 -5.3,-1.1c-1.5,-0.7 -2.8,-1.7 -3.9,-3l0.6,-1c0.2,-0.2 0.4,-0.3 0.6,-0.3c0.1,0 0.3,0.1 0.5,0.3s0.5,0.4 0.7,0.6c0.3,0.3 0.6,0.5 1.1,0.8s0.9,0.6 1.4,0.8c0.5,0.3 1.2,0.5 1.9,0.6s1.5,0.3 2.4,0.3c1.2,0 2.3,-0.2 3.3,-0.6c1,-0.4 1.8,-0.9 2.5,-1.5c0.7,-0.6 1.2,-1.4 1.5,-2.3c0.4,-0.9 0.5,-1.8 0.5,-2.8c0,-1.1 -0.2,-2 -0.7,-2.7c-0.4,-0.7 -1,-1.3 -1.8,-1.8c-0.7,-0.5 -1.6,-0.9 -2.5,-1.2c-0.9,-0.3 -1.9,-0.6 -2.9,-0.9c-1,-0.3 -1.9,-0.7 -2.9,-1c-0.9,-0.4 -1.8,-0.9 -2.5,-1.5c-0.7,-0.6 -1.3,-1.3 -1.8,-2.2c-0.4,-0.9 -0.7,-2 -0.7,-3.3c0,-1 0.2,-2 0.6,-3c0.4,-1 1,-1.8 1.7,-2.6c0.8,-0.7 1.7,-1.3 2.8,-1.8s2.4,-0.7 3.8,-0.7c1.6,0 3.1,0.3 4.4,0.8s2.5,1.3 3.5,2.4l-0.4,0.9z" id="svg_7"/>
  </g>
  <g class="st0" id="svg_8">
   <path class="st1" d="m175.3,32.6l0,12.4l-5.9,0l0,-31.8l9.7,0c2.2,0 4,0.2 5.6,0.7c1.5,0.4 2.8,1.1 3.8,1.9c1,0.8 1.7,1.8 2.2,2.9s0.7,2.4 0.7,3.7c0,1.1 -0.2,2.1 -0.5,3s-0.8,1.8 -1.4,2.6c-0.6,0.8 -1.3,1.5 -2.2,2c-0.9,0.6 -1.9,1.1 -3,1.4c0.7,0.4 1.4,1 1.9,1.8l8,11.7l-5.3,0c-0.5,0 -1,-0.1 -1.3,-0.3c-0.4,-0.2 -0.7,-0.5 -0.9,-0.9l-6.7,-10.1c-0.2,-0.4 -0.5,-0.7 -0.8,-0.8c-0.3,-0.2 -0.7,-0.2 -1.3,-0.2l-2.6,0zm0,-4.3l3.7,0c1.1,0 2.1,-0.1 2.9,-0.4c0.8,-0.3 1.5,-0.7 2,-1.2s0.9,-1.1 1.2,-1.7c0.3,-0.7 0.4,-1.4 0.4,-2.2c0,-1.6 -0.5,-2.9 -1.6,-3.7c-1.1,-0.9 -2.7,-1.3 -4.9,-1.3l-3.8,0l0,10.5l0.1,0z" id="svg_9"/>
   <path class="st1" d="m226,45l-4.6,0c-0.5,0 -0.9,-0.1 -1.3,-0.4s-0.6,-0.6 -0.7,-1l-2.4,-6.5l-13.2,0l-2.4,6.5c-0.1,0.3 -0.3,0.6 -0.7,0.9s-0.8,0.4 -1.3,0.4l-4.4,0l12.5,-31.8l6.1,0l12.4,31.9zm-20.6,-12l10.1,0l-3.9,-10.6c-0.2,-0.5 -0.4,-1 -0.6,-1.7c-0.2,-0.6 -0.4,-1.3 -0.6,-2.1c-0.2,0.7 -0.4,1.4 -0.6,2.1s-0.4,1.2 -0.6,1.7l-3.8,10.6z" id="svg_10"/>
   <path class="st1" d="m235.9,46l-5.9,0l0,-31.8l5.9,0l0,31.8z" id="svg_11"/>
   <path class="st1" d="m265,37.5c0.3,0 0.6,0.1 0.8,0.4l2.3,2.5c-1.3,1.6 -2.9,2.8 -4.8,3.7s-4.1,1.3 -6.8,1.3c-2.4,0 -4.5,-0.4 -6.4,-1.2c-1.9,-0.8 -3.5,-1.9 -4.8,-3.4s-2.4,-3.2 -3.1,-5.1c-0.7,-2 -1.1,-4.2 -1.1,-6.5c0,-2.4 0.4,-4.6 1.2,-6.6c0.8,-2 1.9,-3.7 3.3,-5.1c1.4,-1.4 3.2,-2.6 5.2,-3.4s4.2,-1.2 6.6,-1.2c2.4,0 4.4,0.4 6.2,1.1c1.8,0.8 3.3,1.8 4.5,3l-2,2.8c-0.1,0.2 -0.3,0.3 -0.5,0.5c-0.2,0.1 -0.4,0.2 -0.8,0.2c-0.3,0 -0.7,-0.1 -1,-0.4c-0.4,-0.3 -0.8,-0.6 -1.3,-0.9c-0.5,-0.3 -1.2,-0.6 -2.1,-0.9c-0.8,-0.3 -1.9,-0.4 -3.2,-0.4c-1.5,0 -2.9,0.3 -4.1,0.8s-2.3,1.3 -3.2,2.2c-0.9,1 -1.6,2.1 -2.1,3.5c-0.5,1.4 -0.8,2.9 -0.8,4.7c0,1.8 0.3,3.4 0.8,4.8c0.5,1.4 1.2,2.6 2.1,3.5c0.9,1 1.9,1.7 3.1,2.2s2.4,0.8 3.8,0.8c0.8,0 1.5,0 2.2,-0.1c0.7,-0.1 1.3,-0.2 1.8,-0.4s1.1,-0.4 1.6,-0.7c0.5,-0.3 1,-0.7 1.5,-1.1c0.1,-0.1 0.3,-0.2 0.5,-0.3c0.2,-0.3 0.4,-0.3 0.6,-0.3z" id="svg_12"/>
   <path class="st1" d="m292.7,13.2l0,4.7l-14.1,0l0,8.8l11.1,0l0,4.6l-11.1,0l0,9l14.1,0l0,4.7l-20.1,0l0,-31.8l20.1,0z" id="svg_13"/>
   <path class="st1" d="m314.8,19c-0.2,0.3 -0.3,0.6 -0.6,0.7c-0.2,0.1 -0.5,0.2 -0.8,0.2c-0.3,0 -0.6,-0.1 -1,-0.3c-0.4,-0.2 -0.8,-0.5 -1.3,-0.8c-0.5,-0.3 -1.1,-0.5 -1.7,-0.8c-0.7,-0.2 -1.5,-0.3 -2.4,-0.3c-0.8,0 -1.5,0.1 -2.1,0.3s-1.1,0.5 -1.5,0.8c-0.4,0.4 -0.7,0.8 -0.9,1.3c-0.2,0.5 -0.3,1 -0.3,1.6c0,0.7 0.2,1.4 0.6,1.9c0.4,0.5 1,0.9 1.7,1.3c0.7,0.4 1.5,0.7 2.4,0.9s1.8,0.6 2.7,0.9c0.9,0.3 1.8,0.7 2.7,1.1s1.7,0.9 2.4,1.6c0.7,0.6 1.2,1.4 1.7,2.3s0.6,2 0.6,3.4c0,1.4 -0.2,2.8 -0.7,4s-1.2,2.3 -2.2,3.3c-0.9,0.9 -2.1,1.7 -3.5,2.2s-2.9,0.8 -4.7,0.8c-1,0 -2,-0.1 -3,-0.3c-1,-0.2 -1.9,-0.5 -2.8,-0.8c-0.9,-0.4 -1.7,-0.8 -2.5,-1.3c-0.8,-0.5 -1.5,-1.1 -2.1,-1.7l1.7,-2.8c0.2,-0.2 0.4,-0.4 0.6,-0.5s0.5,-0.2 0.8,-0.2c0.4,0 0.8,0.2 1.2,0.5c0.4,0.3 0.9,0.6 1.5,1c0.6,0.4 1.3,0.7 2,1c0.8,0.3 1.7,0.5 2.8,0.5c1.7,0 3,-0.4 3.9,-1.2c0.9,-0.8 1.4,-1.9 1.4,-3.4c0,-0.8 -0.2,-1.5 -0.6,-2c-0.4,-0.5 -1,-1 -1.7,-1.3s-1.5,-0.7 -2.4,-0.9s-1.8,-0.5 -2.7,-0.8c-0.9,-0.3 -1.8,-0.6 -2.7,-1.1c-0.9,-0.4 -1.7,-0.9 -2.4,-1.6c-0.7,-0.7 -1.2,-1.5 -1.7,-2.5s-0.6,-2.2 -0.6,-3.7c0,-1.2 0.2,-2.3 0.7,-3.4c0.5,-1.1 1.1,-2.1 2,-2.9c0.9,-0.9 2,-1.5 3.3,-2c1.3,-0.5 2.8,-0.8 4.4,-0.8c1.9,0 3.6,0.3 5.2,0.9c1.6,0.6 2.9,1.4 4,2.5l-1.4,2.4z" id="svg_14"/>
   <path class="st1" d="m238.58,10.18l-4.4,0l0,-7.21l4.4,0l0,7.21z" id="svg_15" transform="rotate(30 236.377 6.57212)"/>
  </g>
  <path d="m1642.8,-253.6c-0.57,1.6 -0.85,2.51 -1.57,3.2c-0.56,0.54 -1.46,0.93 -2.02,1.46c-0.6,0.55 -1.25,1.5 -1.52,2.02c-0.41,0.8 -0.71,1.67 -1.37,2.63c-0.32,0.47 -0.92,1.08 -1.71,1.89c-0.59,0.6 -1.18,1.17 -1.78,2c-0.42,0.58 -0.82,1.4 -1.32,2.4c-0.3,0.6 -0.8,1.6 -1.11,2.22c-0.35,0.69 -0.92,1.82 -1.24,2.48c-0.34,0.69 -0.7,1.37 -1.02,2.36c-0.26,0.81 -0.31,1.72 -0.33,2.73c-0.02,0.77 -0.14,1.87 -0.8,2.31c-0.73,0.49 -1.86,0.29 -2.6,0.29c-1,0 -1.8,0 -2.8,0c-0.86,0 -1.66,0 -2.66,0c-0.79,0 -1.64,0 -2.48,0c-1.16,0 -1.81,0.1 -2.79,-0.04c-1,-0.14 -1.58,-0.57 -2.47,-0.99c-0.81,-0.38 -1.15,-1.39 -1.9,-1.81c-0.72,-0.4 -1.63,-0.21 -2.5,-0.5c-0.92,-0.3 -1.44,-0.69 -2.23,-1.1c-0.94,-0.49 -2.35,-0.06 -2.68,-0.85c-0.38,-0.9 0.98,-1.37 1.43,-1.73c0.72,-0.58 1.51,-1.38 2,-2c0.53,-0.67 1.24,-1.41 1.84,-1.94c0.65,-0.57 1.34,-1.14 1.67,-1.44c0.94,-0.88 1.46,-1.5 1.99,-2.08c0.53,-0.57 1.46,-1.38 2.23,-1.83c0.8,-0.47 1.64,-0.84 2.03,-1.03c1.33,-0.63 1.97,-1.04 2.6,-1.46c0.92,-0.62 1.55,-1 2.13,-1.77c0.33,-0.44 -0.37,-0.44 -1.41,-0.44c-0.66,0 -1.66,-0.01 -2.62,0.02c-0.68,0.03 -1.95,0.16 -2.72,0.42c-0.72,0.23 -1.68,0.67 -2.22,0.87c-0.88,0.33 -1.53,0.57 -2.56,1.02c-0.73,0.32 -1.47,0.68 -2.23,0.97c-1.07,0.41 -2.09,0.61 -2.71,0.69c-0.85,0.11 -2.12,0.29 -2.66,0.63c-0.86,0.55 -0.34,0.91 0.43,0.42c0.68,-0.43 1.24,-1.14 1.71,-1.82c0.55,-0.8 0.82,-1.25 1.47,-2.14c0.66,-0.92 1.02,-1.37 1.76,-2.22c0.37,-0.43 1.12,-1.24 1.49,-1.65c1.09,-1.2 1.44,-1.6 2.09,-2.39c0.31,-0.38 0.88,-1.11 1.39,-1.76l0.8,-1l0.55,-0.59" fill="none" id="svg_16" transform="matrix(1 0 0 1 0 0)"/>
  <polyline fill="none" id="svg_17" opacity="0.5" points="1613.8000152438876,-249.6000019073486 " stroke-linecap="round"/>
 </g>
</svg>